<svg width="512" height="512" viewBox="0 0 512 512" fill="none" xmlns="http://www.w3.org/2000/svg">
<path d="M351.652 362.196L172.167 362.258C163.15 362.262 155.073 357.602 150.561 349.795C148.306 345.89 147.177 341.608 147.176 337.324C147.174 333.041 148.3 328.757 150.553 324.852L240.238 161.584C244.745 153.773 252.819 149.109 261.835 149.105C270.852 149.102 278.929 153.761 283.441 161.569L373.251 324.795C375.501 328.689 376.626 332.967 376.627 337.247C376.627 341.528 375.501 345.812 373.248 349.718C368.743 357.528 360.669 362.193 351.652 362.196ZM149.432 337.321C149.432 341.22 169.237 332.818 171.289 336.37C175.393 343.473 163.962 360.01 172.166 360.007C172.166 360.007 367.199 355.698 371.298 348.593C373.348 345.04 374.372 341.142 374.371 337.246C374.369 333.349 373.342 329.452 371.29 325.901L281.48 162.675C277.387 155.593 270.04 151.354 261.836 151.357C253.637 151.36 149.432 333.422 149.432 337.321Z" fill="#3F3D56"/>
<path d="M314.209 326.19C359.59 326.19 396.378 289.401 396.378 244.021C396.378 198.64 359.59 161.852 314.209 161.852C268.828 161.852 232.04 198.64 232.04 244.021C232.04 289.401 268.828 326.19 314.209 326.19Z" fill="#0566FF"/>
<path d="M314.224 294.39C318.39 294.39 321.768 291.012 321.768 286.845C321.768 282.679 318.39 279.301 314.224 279.301C310.057 279.301 306.679 282.679 306.679 286.845C306.679 291.012 310.057 294.39 314.224 294.39Z" fill="white"/>
<path d="M314.191 193.652C313.498 198.257 314.74 199.22 314.747 219.073C314.754 238.927 318.873 265.545 314.216 265.546C309.559 265.548 307.856 210.614 291.685 205.752C272.673 200.036 316.435 178.744 314.191 193.652Z" fill="white"/>
<path d="M203.926 285.976L196.503 301.661C205.477 295.226 219.495 289.678 230.651 286.707C220.257 281.686 207.539 273.591 199.94 265.577L204.21 282.151C154.15 271.955 118.201 233.551 118.186 189.56L116.378 188.938C116.394 234.888 151.845 275.565 203.926 285.976Z" fill="#3F3D56"/>
</svg>
